# xmcd CD database file
#
# Track frame offsets:
#	150
#	21620
#	38356
#	52219
#	75475
#	97467
#	116603
#	140276
#	162183
#	192471
#	218035
#	234309
#	260610
#	274643
#	289043
#	299210
#
# Disc length: 4348 seconds
#
# Revision: 0
# Processed by: cddbd v1.5.2PL0 Copyright (c) Steve Scherf et al.
# Submitted via: CDex 1.79
#
DISCID=f710fa10
DTITLE=Various Jazz - Terifvic Jazz Party
DYEAR=1900
DGENRE=Jazz
TTITLE0=01 Undecided Now_Big Band Show
TTITLE1=02 Billy-A-Dick_Wooden Nickel Jass Band
TTITLE2=03 Jiggle_Planet Swing
TTITLE3=04 Ooh-Pooh-Pah-Pah-Doo_Black Dogs
TTITLE4=05 I'm Beginning To See The Light_Chicago Six
TTITLE5=06 Rockin' In Rhythm_Fireworks! Jazz Band
TTITLE6=07 Shake It, Break It, Hang It On The Wall_Black Dogs
TTITLE7=08 Simone_Gator Beat
TTITLE8=09 Take The A Train_Lance Buller and The Monarchs
TTITLE9=10 Zydeco Wine_Gator Beat
TTITLE10=11 Hey Good Lookin'_Planet Swing
TTITLE11=12 Petite Fleur_Le Dixieband
TTITLE12=13 Audubon Zoo_Black Dogs
TTITLE13=14 Le Soleil C'est Couche_Gatorbeat
TTITLE14=15 Shim-me Sha Wobble_Le Dixieband
TTITLE15=16 Yellow Dog Blues_Black Dogs
EXTD=
EXTT0=
EXTT1=
EXTT2=
EXTT3=
EXTT4=
EXTT5=
EXTT6=
EXTT7=
EXTT8=
EXTT9=
EXTT10=
EXTT11=
EXTT12=
EXTT13=
EXTT14=
EXTT15=
PLAYORDER=
